<mxfile host="app.diagrams.net" modified="2023-10-18T07:26:23.535Z" agent="Mozilla/5.0 (Windows NT 10.0; Win64; x64) AppleWebKit/537.36 (KHTML, like Gecko) Chrome/117.0.0.0 Safari/537.36" etag="VyUy2Q-ajC4no1rUPIUk" version="22.0.4" type="device">
  <diagram name="PÃ¡gina-1" id="yYDjsf7TxtFNMvkuyLiJ">
    <mxGraphModel dx="1793" dy="938" grid="1" gridSize="10" guides="1" tooltips="1" connect="1" arrows="1" fold="1" page="1" pageScale="1" pageWidth="1169" pageHeight="827" math="0" shadow="0">
      <root>
        <mxCell id="0" />
        <mxCell id="1" parent="0" />
        <mxCell id="2QD1Dzy41z7lv4XzgusP-13" value="WIFI_MOCK_&lt;br&gt;EVENT_WIFI_DISCONNECTED" style="rounded=1;whiteSpace=wrap;html=1;fillColor=#ffe6cc;strokeColor=#d79b00;" vertex="1" parent="1">
          <mxGeometry x="605" y="256" width="190" height="60" as="geometry" />
        </mxCell>
        <mxCell id="2QD1Dzy41z7lv4XzgusP-14" value="WIFI_MOCK_&lt;br&gt;EVENT_WIFI_CONNECTED" style="rounded=1;whiteSpace=wrap;html=1;fillColor=#ffe6cc;strokeColor=#d79b00;" vertex="1" parent="1">
          <mxGeometry x="450" y="626" width="180" height="50" as="geometry" />
        </mxCell>
        <mxCell id="2QD1Dzy41z7lv4XzgusP-15" value="WIFI_MOCK_&lt;br&gt;EVENT_WIFI_GOT_IP" style="rounded=1;whiteSpace=wrap;html=1;fillColor=#ffe6cc;strokeColor=#d79b00;" vertex="1" parent="1">
          <mxGeometry x="829" y="483" width="150" height="50" as="geometry" />
        </mxCell>
        <mxCell id="2QD1Dzy41z7lv4XzgusP-27" value="TEMPERATURE_READED_&lt;br&gt;EVENT" style="rounded=1;whiteSpace=wrap;html=1;fillColor=#d5e8d4;strokeColor=#82b366;" vertex="1" parent="1">
          <mxGeometry x="795" y="66" width="170" height="50" as="geometry" />
        </mxCell>
        <mxCell id="2QD1Dzy41z7lv4XzgusP-28" value="HUMIDITY_READED_&lt;br&gt;EVENT" style="rounded=1;whiteSpace=wrap;html=1;fillColor=#d5e8d4;strokeColor=#82b366;" vertex="1" parent="1">
          <mxGeometry x="565" y="701" width="140" height="60" as="geometry" />
        </mxCell>
        <mxCell id="2QD1Dzy41z7lv4XzgusP-29" value="MONITOR_GPIO_&lt;br&gt;BUTTON_PRESSED" style="rounded=1;whiteSpace=wrap;html=1;fillColor=#f8cecc;strokeColor=#b85450;" vertex="1" parent="1">
          <mxGeometry x="315" y="136" width="150" height="65" as="geometry" />
        </mxCell>
        <mxCell id="2QD1Dzy41z7lv4XzgusP-30" value="CMD_&lt;br&gt;MONITOR_EVENT" style="rounded=1;whiteSpace=wrap;html=1;fillColor=#e1d5e7;strokeColor=#9673a6;" vertex="1" parent="1">
          <mxGeometry x="95" y="356" width="142.25" height="60" as="geometry" />
        </mxCell>
        <mxCell id="2QD1Dzy41z7lv4XzgusP-48" style="edgeStyle=orthogonalEdgeStyle;rounded=0;orthogonalLoop=1;jettySize=auto;html=1;exitX=0;exitY=0;exitDx=0;exitDy=0;entryX=0.5;entryY=0;entryDx=0;entryDy=0;curved=1;fillColor=#ffe6cc;strokeColor=#d79b00;" edge="1" parent="1" source="2QD1Dzy41z7lv4XzgusP-31" target="2QD1Dzy41z7lv4XzgusP-36">
          <mxGeometry relative="1" as="geometry" />
        </mxCell>
        <mxCell id="2QD1Dzy41z7lv4XzgusP-31" value="&lt;font style=&quot;font-size: 16px;&quot;&gt;monitor / send_data=1&lt;/font&gt;" style="ellipse;whiteSpace=wrap;html=1;aspect=fixed;fillColor=#dae8fc;strokeColor=#6c8ebf;" vertex="1" parent="1">
          <mxGeometry x="825" y="160" width="110" height="110" as="geometry" />
        </mxCell>
        <mxCell id="2QD1Dzy41z7lv4XzgusP-49" style="edgeStyle=orthogonalEdgeStyle;rounded=0;orthogonalLoop=1;jettySize=auto;html=1;exitX=0;exitY=0.5;exitDx=0;exitDy=0;entryX=0;entryY=0.5;entryDx=0;entryDy=0;curved=1;fillColor=#e1d5e7;strokeColor=#9673a6;" edge="1" parent="1" source="2QD1Dzy41z7lv4XzgusP-32" target="2QD1Dzy41z7lv4XzgusP-36">
          <mxGeometry relative="1" as="geometry" />
        </mxCell>
        <mxCell id="2QD1Dzy41z7lv4XzgusP-32" value="&lt;font style=&quot;font-size: 16px;&quot;&gt;console&lt;/font&gt;" style="ellipse;whiteSpace=wrap;html=1;aspect=fixed;fillColor=#dae8fc;strokeColor=#6c8ebf;" vertex="1" parent="1">
          <mxGeometry x="85" y="96" width="105.5" height="105.5" as="geometry" />
        </mxCell>
        <mxCell id="2QD1Dzy41z7lv4XzgusP-46" style="edgeStyle=orthogonalEdgeStyle;rounded=0;orthogonalLoop=1;jettySize=auto;html=1;exitX=1;exitY=0.5;exitDx=0;exitDy=0;entryX=1;entryY=1;entryDx=0;entryDy=0;curved=1;fillColor=#ffe6cc;strokeColor=#d79b00;" edge="1" parent="1" source="2QD1Dzy41z7lv4XzgusP-36" target="2QD1Dzy41z7lv4XzgusP-31">
          <mxGeometry relative="1" as="geometry" />
        </mxCell>
        <mxCell id="2QD1Dzy41z7lv4XzgusP-52" style="edgeStyle=orthogonalEdgeStyle;rounded=0;orthogonalLoop=1;jettySize=auto;html=1;exitX=0;exitY=0;exitDx=0;exitDy=0;entryX=1;entryY=0.5;entryDx=0;entryDy=0;curved=1;fillColor=#f8cecc;strokeColor=#b85450;" edge="1" parent="1" source="2QD1Dzy41z7lv4XzgusP-36" target="2QD1Dzy41z7lv4XzgusP-32">
          <mxGeometry relative="1" as="geometry" />
        </mxCell>
        <mxCell id="2QD1Dzy41z7lv4XzgusP-36" value="&lt;font style=&quot;font-size: 16px;&quot;&gt;monitor / send_data=0&lt;/font&gt;" style="ellipse;whiteSpace=wrap;html=1;aspect=fixed;fillColor=#dae8fc;strokeColor=#6c8ebf;" vertex="1" parent="1">
          <mxGeometry x="485" y="476" width="110" height="110" as="geometry" />
        </mxCell>
        <mxCell id="2QD1Dzy41z7lv4XzgusP-54" style="edgeStyle=orthogonalEdgeStyle;rounded=0;orthogonalLoop=1;jettySize=auto;html=1;exitX=0.5;exitY=0;exitDx=0;exitDy=0;entryX=1;entryY=0.5;entryDx=0;entryDy=0;curved=1;fillColor=#d5e8d4;strokeColor=#82b366;" edge="1" parent="1" source="2QD1Dzy41z7lv4XzgusP-31" target="2QD1Dzy41z7lv4XzgusP-31">
          <mxGeometry relative="1" as="geometry" />
        </mxCell>
        <mxCell id="2QD1Dzy41z7lv4XzgusP-55" style="edgeStyle=orthogonalEdgeStyle;rounded=0;orthogonalLoop=1;jettySize=auto;html=1;exitX=0;exitY=1;exitDx=0;exitDy=0;entryX=0.882;entryY=0.939;entryDx=0;entryDy=0;entryPerimeter=0;curved=1;" edge="1" parent="1" source="2QD1Dzy41z7lv4XzgusP-36" target="2QD1Dzy41z7lv4XzgusP-36">
          <mxGeometry relative="1" as="geometry">
            <Array as="points">
              <mxPoint x="501" y="616" />
              <mxPoint x="582" y="616" />
            </Array>
          </mxGeometry>
        </mxCell>
        <mxCell id="2QD1Dzy41z7lv4XzgusP-56" value="TEMPERATURE_READED_&lt;br&gt;EVENT" style="rounded=1;whiteSpace=wrap;html=1;fillColor=#d5e8d4;strokeColor=#82b366;" vertex="1" parent="1">
          <mxGeometry x="365" y="706" width="170" height="50" as="geometry" />
        </mxCell>
        <mxCell id="2QD1Dzy41z7lv4XzgusP-57" value="HUMIDITY_READED_&lt;br&gt;EVENT" style="rounded=1;whiteSpace=wrap;html=1;fillColor=#d5e8d4;strokeColor=#82b366;" vertex="1" parent="1">
          <mxGeometry x="965" y="126" width="140" height="60" as="geometry" />
        </mxCell>
      </root>
    </mxGraphModel>
  </diagram>
</mxfile>
